<?xml version="1.0" encoding="utf-8"?>
<!-- Generator: Adobe Illustrator 26.0.3, SVG Export Plug-In . SVG Version: 6.00 Build 0)  -->
<svg version="1.1" id="environment" xmlns="http://www.w3.org/2000/svg" xmlns:xlink="http://www.w3.org/1999/xlink" x="0px" y="0px"
	 viewBox="0 0 64 64" enable-background="new 0 0 64 64" xml:space="preserve">
<path fill="#53FF9E" d="M32,58C17.66,58,6,46.34,6,32S17.66,6,32,6c14.34,0,26,11.66,26,26S46.34,58,32,58z M32,10
	c-12.13,0-22,9.87-22,22s9.87,22,22,22s22-9.87,22-22S44.13,10,32,10z"/>
<rect x="13" y="23" fill-rule="evenodd" clip-rule="evenodd" fill="#53FF9E" width="38" height="2"/>
<rect x="13" y="39" fill-rule="evenodd" clip-rule="evenodd" fill="#53FF9E" width="38" height="2"/>
<path fill="#53FF9E" d="M33.57,56.82l-1.14-1.65C32.51,55.12,41,48.98,41,32S32.51,8.88,32.43,8.82l1.14-1.64
	C33.95,7.44,43,13.9,43,32S33.95,56.56,33.57,56.82z"/>
<path fill="#53FF9E" d="M30.43,56.82C30.05,56.56,21,50.1,21,32s9.05-24.56,9.43-24.82l1.14,1.65L31,8l0.57,0.82
	C31.49,8.88,23,15.02,23,32s8.49,23.12,8.57,23.18L30.43,56.82z"/>
</svg>
